<?xml version="1.0" encoding="UTF-8" standalone="no"?>
<svg width="110px" height="25px" viewBox="0 0 110 25" version="1.1" xmlns="http://www.w3.org/2000/svg" xmlns:xlink="http://www.w3.org/1999/xlink" xmlns:sketch="http://www.bohemiancoding.com/sketch/ns">
    <!-- Generator: Sketch 3.4.4 (17249) - http://www.bohemiancoding.com/sketch -->
    <title>Atlas + Path + Rectangle 51</title>
    <desc>Created with Sketch.</desc>
    <defs></defs>
    <g id="Web-page" stroke="none" stroke-width="1" fill="none" fill-rule="evenodd" sketch:type="MSPage">
        <g id="Home" sketch:type="MSArtboardGroup" transform="translate(-50.000000, -32.000000)" fill="#FFFFFF">
            <g id="Atlas-+-Path-+-Rectangle-51" sketch:type="MSLayerGroup" transform="translate(50.000000, 27.000000)">
                <text id="Atlas" sketch:type="MSTextLayer" font-family="Sansita One" font-size="32" font-weight="normal">
                    <tspan x="16" y="29">Atlas</tspan>
                </text>
                <path d="M14.1176471,20 L5,20 C5,20 5,22 6.5,23 C8,24 10,24 10,24 L12.4705882,24 L14.1176471,20 Z M94.6470588,20 L105,20 C105,20 105,22 103,23 C101,24 99,24 99,24 L93.5882353,24 L94.6470588,20 Z" id="Path" sketch:type="MSShapeGroup"></path>
                <path d="M16.7368421,14 L0,14 C0,14 0,16 1.5,17 C3,18 5,18 5,18 L14.8421053,18 L16.7368421,14 Z M96.1052632,14 L110,14 C110,14 110,16 108,17 C106,18 104,18 104,18 L95.2631579,18 L96.1052632,14 Z" id="Rectangle-51" sketch:type="MSShapeGroup"></path>
            </g>
        </g>
    </g>
</svg>